HIERARCHY
ROOT Hips
{
  OFFSET 196.326 95.9168 97.7182
  CHANNELS 6 Xposition Yposition Zposition Zrotation Xrotation Yrotation
  JOINT LeftUpLeg
  {
    OFFSET 8.64259 1.95398 -2.38835
    CHANNELS 3 Zrotation Xrotation Yrotation
    JOINT LeftLeg
    {
      OFFSET 43.7702 0 0
      CHANNELS 3 Zrotation Xrotation Yrotation
      JOINT LeftFoot
      {
        OFFSET 40.6238 0 0
        CHANNELS 3 Zrotation Xrotation Yrotation
        JOINT LeftToeBase
        {
          OFFSET 12.7242 0 0
          CHANNELS 3 Zrotation Xrotation Yrotation
          End Site
          {
            OFFSET 0 0 0
          }
        }
      }
    }
  }
  JOINT RightUpLeg
  {
    OFFSET -8.2249 1.95398 -2.59336
    CHANNELS 3 Zrotation Xrotation Yrotation
    JOINT RightLeg
    {
      OFFSET 43.5653 0 0
      CHANNELS 3 Zrotation Xrotation Yrotation
      JOINT RightFoot
      {
        OFFSET 40.6238 0 0
        CHANNELS 3 Zrotation Xrotation Yrotation
        JOINT RightToeBase
        {
          OFFSET 12.7242 0 0
          CHANNELS 3 Zrotation Xrotation Yrotation
          End Site
          {
            OFFSET 0 0 0
          }
        }
      }
    }
  }
  JOINT Spine
  {
    OFFSET 0.165834 0.87714 6.61349
    CHANNELS 3 Zrotation Xrotation Yrotation
    JOINT Spine1
    {
      OFFSET 7.38963 1.71661e-005 0
      CHANNELS 3 Zrotation Xrotation Yrotation
      JOINT Spine2
      {
        OFFSET 11.9445 1.14441e-005 0
        CHANNELS 3 Zrotation Xrotation Yrotation
        JOINT Spine3
        {
          OFFSET 14.7254 4.19617e-005 0
          CHANNELS 3 Zrotation Xrotation Yrotation
          JOINT Spine4
          {
            OFFSET 10.9679 0 0
            CHANNELS 3 Zrotation Xrotation Yrotation
            JOINT RightShoulder
            {
              OFFSET 2.46616 -1.6653 3.69651
              CHANNELS 3 Zrotation Xrotation Yrotation
              JOINT RightArm
              {
                OFFSET 13.0012 0 0
                CHANNELS 3 Zrotation Xrotation Yrotation
                JOINT RightForeArm
                {
                  OFFSET 28.7848 1.52588e-005 0
                  CHANNELS 3 Zrotation Xrotation Yrotation
                  JOINT RightHand
                  {
                    OFFSET 26.5688 1.52588e-005 0
                    CHANNELS 3 Zrotation Xrotation Yrotation
                    End Site
                    {
                      OFFSET 0 0 0
                    }
                  }
                }
              }
            }
            JOINT LeftShoulder
            {
              OFFSET 2.38034 -1.29275 -3.75231
              CHANNELS 3 Zrotation Xrotation Yrotation
              JOINT LeftArm
              {
                OFFSET 16.3182 6.10351e-005 0
                CHANNELS 3 Zrotation Xrotation Yrotation
                JOINT LeftForeArm
                {
                  OFFSET 27.0901 0 0
                  CHANNELS 3 Zrotation Xrotation Yrotation
                  JOINT LeftHand
                  {
                    OFFSET 24.5451 1.52588e-005 0
                    CHANNELS 3 Zrotation Xrotation Yrotation
                    End Site
                    {
                      OFFSET 0 0 0
                    }
                  }
                }
              }
            }
            JOINT Neck
            {
              OFFSET 5.0226 -0.0266342 0
              CHANNELS 3 Zrotation Xrotation Yrotation
              JOINT Head
              {
                OFFSET 6.69363 2.86102e-005 0
                CHANNELS 3 Zrotation Xrotation Yrotation
                End Site
                {
                  OFFSET 0 0 0
                }
              }
            }
          }
        }
      }
    }
  }
}
MOTION
Frames:	10
Frame Time:	0.0416667
-4.52881 97.1766 1.23275 85.8943 -38.9653 87.784 -172.774 6.34798 89.0624 -6.44081 11.6572 -1.33097 59.4431 5.09532 13.162 38.6385 8.92365 -33.3617 178.864 7.71376 92.0393 -11.4908 6.99709 0.250452 65.3658 -1.99197 -1.07049 25.63 -2.37752 23.5054 -0.0440027 6.47245 -89.9588 13.9073 -0.0670306 0.0917848 2.23633 -0.0629019 0.094642 -20.2989 -0.0915184 0.0591332 -0.286198 -0.0915313 0.0591418 78.0298 -52.5571 -117.722 24.7792 -13.1361 5.05949 -7.76056 -17.1181 -38.6941 -5.29836 -0.634264 7.41602 -106.245 -43.2881 51.8884 -27.5943 13.1738 2.46431 4.062 16.5733 -29.4817 10.8043 1.01126 5.1478 18.0273 -1.0939 1.17168 -8.77242 -1.42304 0.985721 
-4.51954 97.1591 1.20178 85.8438 -38.8248 87.7752 -172.827 6.47412 89.0307 -6.43753 12.9991 -1.43137 59.2356 5.42504 14.4981 37.3553 8.19632 -31.8056 178.921 7.82358 92.0737 -11.6236 6.92829 0.196612 65.536 -2.07473 -1.11763 26.9869 -1.96305 23.0108 -0.05396 6.47246 -89.96 13.9197 -0.0873473 0.0920449 2.24873 -0.0832244 0.095794 -20.2864 -0.11098 0.063103 -0.273786 -0.110963 0.0631123 78.274 -52.8216 -117.266 24.437 -13.0737 4.54764 -7.63837 -18.3052 -38.41 -4.35194 -0.519238 6.04889 -106.217 -43.3181 51.9458 -27.6113 12.984 2.5465 3.32865 14.1782 -29.5363 10.845 0.971602 4.77777 17.9539 -1.07726 0.907725 -8.88433 -1.33124 1.08208 
-4.48273 97.1752 1.18497 85.8222 -38.694 87.7681 -172.843 6.55848 89.0067 -6.58098 12.9883 -1.41802 59.161 5.31442 14.3777 37.6938 8.41907 -31.5612 178.953 7.92061 92.0735 -11.768 7.10992 0.152769 65.3582 -2.02436 -1.08931 28.0304 -1.65889 22.7084 -0.0580921 6.47242 -89.9541 13.9221 -0.0926393 0.104559 2.25116 -0.0879593 0.108532 -20.284 -0.119789 0.0718804 -0.271351 -0.11977 0.0718848 78.2581 -52.8463 -117.278 24.4267 -12.6832 4.68176 -7.40536 -18.2334 -38.6558 -3.47714 -0.445709 5.8841 -106.066 -43.1957 52.1095 -27.8026 13.0369 2.46854 2.56042 12.4446 -29.3422 11.144 1.00912 4.88985 17.7487 -1.12921 0.391095 -8.80271 -1.24075 1.80166 
-4.43436 97.1624 1.12119 85.9335 -38.6359 87.8673 -172.865 6.44001 88.9792 -6.57438 12.5575 -1.34839 59.1863 5.22817 13.9429 38.2618 8.75313 -32.0796 178.899 7.90218 92.041 -11.9343 7.16852 0.186119 65.5588 -2.098 -1.13286 27.7155 -1.77259 23.0854 -0.0537979 6.48312 -89.9599 13.9086 -0.0870679 0.0919961 2.23768 -0.0829404 0.0957328 -20.2975 -0.110694 0.0615768 -0.284834 -0.110697 0.0615709 78.0515 -52.971 -117.521 24.3629 -12.3871 5.04294 -7.86503 -18.0504 -38.9497 -3.29612 -0.432692 5.9386 -106.139 -43.2914 52.0492 -27.8252 13.076 2.50194 2.76381 12.8982 -29.4115 11.0257 0.990346 4.81283 17.4997 -1.16467 0.333838 -8.55378 -1.25309 1.75228 
-4.37873 97.1443 1.03333 85.8361 -38.3837 87.7029 -172.967 6.57136 88.7866 -6.57665 13.2063 -1.41157 58.9979 5.42078 14.6619 38.2595 8.7519 -32.0567 178.787 8.0444 91.8601 -12.0406 7.14561 0.217302 65.6019 -2.07406 -1.11761 28.0087 -1.68221 22.9363 -0.0696059 6.48126 -89.9378 13.9114 -0.107599 0.139092 2.24046 -0.10135 0.14368 -20.2947 -0.144425 0.100326 -0.28205 -0.144412 0.100325 78.0605 -53.0473 -117.479 24.2054 -12.4456 4.63455 -7.39187 -18.1044 -38.1615 -3.49616 -0.44162 5.54652 -106.102 -43.1332 52.0224 -27.8818 13.0296 2.42858 2.69237 12.732 -29.3398 11.0116 0.983693 4.76634 17.4316 -1.20262 -0.0938689 -8.40421 -1.16866 2.09219 
-4.2958 97.1353 0.850394 85.7825 -38.2324 87.6744 -173.017 6.74075 88.6764 -6.84139 12.5728 -1.36678 59.2139 5.34386 13.6495 38.6583 9.0029 -32.0023 178.803 8.32532 91.7657 -12.4438 6.98889 0.129546 65.6763 -2.065 -1.111 28.082 -1.62234 22.3886 -0.0762199 6.48192 -89.9224 13.9101 -0.113184 0.170911 2.23918 -0.105579 0.17572 -20.296 -0.15933 0.12899 -0.283311 -0.159324 0.128992 77.8767 -52.9859 -117.765 24.5637 -11.9815 5.191 -8.22468 -18.0641 -39.1447 -3.37669 -0.443097 6.16274 -105.982 -42.9512 52.1107 -27.9052 13.1364 2.29818 2.48681 12.5246 -29.1709 11.2119 1.02033 4.93651 17.3266 -1.22969 -0.388799 -8.35121 -1.10929 2.13611 
-4.37129 97.1039 0.546814 86.0666 -38.3603 87.6665 -173.154 7.02097 88.3289 -7.66473 11.4502 -1.25379 60.0315 5.94949 13.2236 36.5672 7.67822 -32.9484 178.833 8.76824 91.569 -13.3869 6.88398 -0.0766056 65.8513 -2.14038 -1.1547 28.1935 -1.62053 22.7699 -0.0841844 6.50797 -89.9032 13.858 -0.1197 0.209955 2.18704 -0.11034 0.21502 -20.3481 -0.177266 0.164272 -0.335416 -0.177272 0.164274 77.5689 -53.1657 -118.129 24.1138 -12.0082 4.99597 -7.64791 -17.8367 -38.6132 -3.50629 -0.447112 5.82947 -105.949 -43.0108 52.1887 -27.9278 13.1107 2.20118 2.47896 12.6745 -28.9576 11.3409 0.992096 4.6144 17.1556 -1.24067 -0.462412 -8.3973 -1.10003 2.10403 
-4.53464 97.0133 0.0258585 86.6821 -38.2779 88.0846 -173.456 7.72252 88.0677 -9.44484 11.6322 -1.05637 59.4418 5.77354 13.619 39.5307 9.4958 -32.8222 178.89 9.46516 91.4901 -15.0968 6.49505 -0.281933 65.8422 -2.11634 -1.14119 29.0512 -1.33596 21.898 -0.126884 6.59419 -89.9126 13.6857 -0.209092 0.202528 2.01471 -0.199976 0.211532 -20.5205 -0.260307 0.130316 -0.507872 -0.260303 0.130316 77.7755 -52.8866 -117.949 24.1762 -11.981 4.99189 -8.0679 -17.9006 -39.4479 -2.94464 -0.405802 6.08724 -106.102 -43.0989 52.0051 -27.7753 12.9218 2.35166 2.78918 12.5648 -29.5508 10.9566 0.917553 4.24261 17.1344 -1.25396 -0.376776 -7.77154 -1.12285 1.72301 
-4.9264 96.8988 -0.68931 87.024 -38.5086 88.3633 -173.594 9.47682 87.7393 -12.4052 10.4352 -0.921471 60.3937 6.54939 13.4169 36.9216 7.89707 -32.7891 179.265 10.7766 91.5952 -17.0331 6.45566 -0.708478 65.7133 -2.16776 -1.17241 29.5641 -1.16813 21.3119 -0.151966 6.69776 -89.8877 13.4786 -0.24676 0.256641 1.80765 -0.235246 0.267246 -20.7276 -0.312498 0.17061 -0.714943 -0.31249 0.17061 77.7349 -53.2342 -117.864 23.7198 -12.0442 4.51506 -8.13602 -17.7616 -39.8065 -3.37832 -0.447247 6.579 -106.252 -42.847 51.6534 -27.4986 12.4801 2.29375 3.3843 13.0059 -29.9717 10.1146 0.837744 4.09962 17.0205 -1.38216 -1.14327 -6.31709 -1.00439 2.1075 
-5.53145 96.6757 -1.66541 87.1085 -39.5058 88.9398 -173.549 11.6211 88.0053 -15.2599 10.9053 -0.948395 59.1048 5.7431 14.4259 41.071 10.4613 -32.5686 -179.9 12.8513 92.2058 -19.429 6.39111 -1.32667 64.6803 -2.02603 -1.09786 31.2714 -0.721655 20.9388 -0.121535 6.84834 -89.8942 13.1774 -0.190176 0.235553 1.50643 -0.179617 0.243689 -21.0287 -0.252175 0.167511 -1.01608 -0.252197 0.167498 77.7766 -52.8042 -117.981 23.6289 -12.3817 3.97677 -8.11884 -17.5958 -40.7247 -4.73958 -0.563212 6.63696 -105.973 -42.6414 51.9654 -27.1413 11.7707 2.38769 4.11493 12.5061 -31.3683 10.1082 0.835638 4.08416 18.2003 -1.56881 -1.33302 -6.05526 -1.11339 1.24164 
